# xmcd
#
# Track frame offsets:
#       150
#       23684
#       48362
#       73597
#       94253
#       115507
#       142857
#       168821
#       190113
#       213461
#
# Disc length: 3348 seconds
#
# Revision: 0
# Processed by: cddbd v1.4PL0 Copyright (c) Steve Scherf et al.
# Submitted via: WhereIsIt 3.26
#
DISCID=7c0d120a
DTITLE=Alejandro Sanz - El Alma al Aire
DYEAR=1900
DGENRE=
TTITLE0=Cuando Nadie me Ve
TTITLE1=Hay un Universo de Pequeñas Cosas
TTITLE2=Quisiera Ser
TTITLE3=Para que me Quieras
TTITLE4=Llega, Llego soledad
TTITLE5=El Alma al Aire
TTITLE6=Me Iré
TTITLE7=Hicimos un Trato
TTITLE8=Tiene que Ser Pecado
TTITLE9=Silencio
EXTD=
EXTT0=
EXTT1=
EXTT2=
EXTT3=
EXTT4=
EXTT5=
EXTT6=
EXTT7=
EXTT8=
EXTT9=
PLAYORDER=
